<?xml version="1.0" standalone="no"?>
<!DOCTYPE svg PUBLIC "-//W3C//DTD SVG 20010904//EN"
 "http://www.w3.org/TR/2001/REC-SVG-20010904/DTD/svg10.dtd">
<svg version="1.0" xmlns="http://www.w3.org/2000/svg"
 width="700.000000pt" height="700.000000pt" viewBox="0 0 700.000000 700.000000"
 preserveAspectRatio="xMidYMid meet">
<metadata>
Created by potrace 1.11, written by Peter Selinger 2001-2013
</metadata>
<g transform="translate(0.000000,700.000000) scale(0.100000,-0.100000)"
fill="#000000" stroke="none">
<path d="M423 6985 c-168 -46 -305 -185 -344 -353 -8 -34 -11 -906 -12 -3137
0 -3388 -5 -3122 58 -3245 57 -113 196 -216 324 -240 35 -7 1088 -10 3060 -10
3296 0 3059 -4 3175 58 120 64 227 214 242 342 4 30 7 1217 7 2637 0 2437 -1
2583 -17 2608 -38 58 -117 62 -163 10 l-23 -26 0 -2593 c0 -2394 -1 -2598 -17
-2645 -22 -69 -79 -132 -145 -161 -52 -23 -57 -24 -461 -24 -224 -1 -407 3
-407 7 0 4 6 18 14 30 29 45 58 152 59 220 0 39 6 71 11 73 6 2 101 4 211 6
193 3 203 4 250 29 58 29 110 92 126 152 8 30 11 386 11 1284 l1 1242 24 22
c40 39 81 111 98 174 12 48 15 116 15 337 -1 333 -9 369 -95 473 l-42 50 0
198 0 199 34 36 c18 21 48 66 66 102 l32 65 0 325 0 325 -27 57 c-14 31 -44
76 -66 100 l-40 43 0 253 0 253 -27 54 c-15 31 -43 68 -66 86 -64 51 -109 59
-324 59 l-192 0 1 49 c3 70 -18 163 -52 229 l-28 58 410 -1 c391 -1 413 -2
457 -22 93 -42 156 -124 164 -218 2 -22 4 -142 4 -267 l1 -228 28 -31 c23 -26
36 -32 71 -32 45 0 84 27 98 67 8 26 8 473 -1 541 -3 28 -24 87 -46 131 -61
126 -166 212 -303 249 -78 21 -6076 21 -6154 0z m413 -2951 c0 -2227 2 -2766
13 -2791 15 -38 62 -62 105 -56 37 5 86 54 86 86 0 12 2 1260 3 2772 l2 2750
1317 0 1318 0 0 -35 c1 -19 1 -216 1 -437 0 -272 4 -414 12 -440 14 -47 92
-125 138 -139 62 -19 128 -10 214 31 44 20 107 50 140 65 33 15 83 37 110 50
28 13 59 23 71 22 12 -1 103 -40 204 -87 211 -99 255 -108 337 -70 49 22 96
68 116 114 8 18 14 168 17 476 l5 450 151 -1 c121 0 162 -4 200 -19 61 -23
119 -76 147 -134 l22 -46 3 -3075 c2 -2698 0 -3081 -13 -3126 -20 -68 -79
-135 -147 -164 l-53 -24 -2140 -1 c-1177 0 -2148 1 -2157 3 -16 4 -17 30 -17
314 0 338 -1 342 -59 371 -38 20 -82 11 -116 -23 l-29 -29 -1 -318 0 -318
-176 1 c-159 1 -180 3 -228 24 -65 28 -127 96 -146 159 -12 39 -15 504 -15
3112 -1 2312 2 3074 11 3100 18 53 54 105 93 135 66 50 114 59 295 59 l165 0
1 -2761z m3994 2755 c4 -6 5 -796 1 -836 -2 -24 -3 -24 -226 82 -238 112 -245
112 -506 -9 -102 -47 -191 -86 -197 -86 -7 0 -12 6 -13 13 -3 34 -4 823 -2
832 4 12 935 15 943 4z m1333 -548 c8 -8 13 -70 14 -207 l3 -194 -203 2 -202
3 0 200 c0 150 3 201 12 205 7 3 91 5 188 4 124 0 179 -4 188 -13z m53 -624
c39 -20 82 -70 91 -105 4 -15 7 -146 7 -292 0 -237 -2 -269 -19 -300 -44 -85
-70 -93 -315 -95 l-205 -2 0 401 c-1 221 3 403 7 406 4 3 97 5 205 5 162 -1
204 -4 229 -18z m-38 -1115 l-1 -117 -181 1 c-99 1 -190 2 -201 3 -20 1 -21 7
-19 114 1 61 2 113 3 115 0 1 91 2 200 2 l200 -1 -1 -117z m42 -342 c22 -11
52 -38 67 -61 l26 -40 1 -267 c1 -306 -4 -335 -67 -386 l-39 -31 -217 -3 -216
-3 1 403 c1 222 2 404 3 406 0 1 91 2 201 2 182 0 205 -2 240 -20z m-44 -2187
c1 -913 -1 -1197 -11 -1209 -10 -14 -35 -17 -181 -16 -93 0 -178 1 -189 1 -20
1 -20 3 -19 1209 1 664 2 1207 3 1207 0 0 90 0 199 0 l197 0 1 -1192z"/>
<path d="M3145 5314 c-79 -18 -191 -67 -261 -115 -56 -38 -143 -122 -169 -162
-18 -29 -19 -29 -94 -22 -120 12 -137 12 -212 3 -273 -33 -505 -221 -606 -493
-15 -41 -16 -46 -32 -130 -17 -91 -3 -263 28 -340 31 -76 79 -168 114 -215 82
-111 226 -215 356 -256 51 -16 66 -20 111 -28 13 -3 15 -63 17 -462 2 -296 6
-473 13 -499 13 -45 39 -79 90 -115 l35 -25 745 -3 c540 -2 757 0 787 9 49 13
112 72 129 121 9 24 13 162 13 500 l1 468 28 6 c241 55 419 185 519 381 65
125 82 190 88 324 13 326 -197 624 -514 728 -106 35 -262 44 -360 22 -42 -9
-45 -8 -70 21 -132 155 -246 231 -411 273 -103 27 -245 30 -345 9z m265 -198
c107 -22 236 -98 300 -177 86 -107 164 -148 259 -135 174 23 251 15 366 -38
177 -82 292 -254 303 -451 8 -160 -43 -292 -157 -406 -76 -75 -156 -119 -274
-148 -107 -26 -148 -56 -183 -130 -15 -31 -17 -72 -18 -286 l-1 -250 -700 0
-699 0 -1 250 c-1 215 -4 255 -19 285 -38 78 -73 103 -187 131 -113 28 -191
71 -270 149 -198 194 -214 504 -36 718 52 63 173 143 252 167 62 20 165 24
299 12 90 -8 152 15 204 74 132 150 210 202 362 237 40 10 148 8 200 -2z m595
-2346 l0 -115 -698 0 c-383 0 -698 2 -698 5 -4 14 -5 207 -1 216 2 9 184 12
700 10 l697 -1 0 -115z"/>
<path d="M2399 2007 c-115 -38 -199 -147 -199 -258 0 -52 16 -84 54 -104 26
-14 38 -15 74 -6 45 13 64 38 76 102 8 44 34 70 73 71 46 1 71 -18 83 -65 18
-71 29 -87 66 -103 75 -31 137 12 140 98 4 96 -63 200 -158 249 -51 26 -155
34 -209 16z"/>
<path d="M4037 2006 c-123 -46 -208 -169 -193 -279 12 -81 84 -118 151 -77 21
13 37 32 41 48 20 93 40 116 97 114 37 -1 64 -26 72 -66 15 -75 52 -116 105
-116 33 0 78 30 91 62 25 61 -7 175 -69 241 -65 70 -209 105 -295 73z"/>
<path d="M3045 1596 c-26 -21 -30 -31 -30 -74 0 -44 4 -56 34 -86 18 -19 61
-50 95 -68 57 -31 67 -33 156 -33 87 0 101 3 162 33 36 18 82 51 103 73 34 38
37 45 32 87 -11 97 -103 121 -187 49 -70 -60 -139 -59 -215 4 -57 47 -104 52
-150 15z"/>
</g>
</svg>
